<svg width="20" height="20" viewBox="0 0 20 20" fill="none" xmlns="http://www.w3.org/2000/svg">
<g clip-path="url(#clip0_9726_1426)">
<path d="M17.1473 2.90894C15.3158 1.02369 12.7842 0.000213623 10.1986 0.000213623C4.70441 0.000213623 0.28742 4.47102 0.341242 9.91141C0.341242 11.6351 0.82603 13.305 1.63406 14.8132L0.233521 19.9304L5.45846 18.5838C6.91282 19.3918 8.52873 19.7689 10.1448 19.7689C15.5852 19.7689 20.0022 15.298 20.0022 9.85767C20.0022 7.21821 18.9787 4.74037 17.1473 2.90894H17.1473ZM10.1986 18.0991C8.74425 18.0991 7.28989 17.7221 6.05097 16.9679L5.72781 16.8063L2.60364 17.6143L3.41159 14.544L3.19615 14.2208C0.82603 10.3964 1.95723 5.33288 5.83553 2.96276C9.71383 0.592723 14.7233 1.72392 17.0934 5.60222C19.4635 9.48052 18.3323 14.49 14.4541 16.8601C13.2151 17.6681 11.7069 18.099 10.1986 18.099V18.0991ZM14.9388 12.1201L14.3463 11.8507C14.3463 11.8507 13.4845 11.4737 12.9458 11.2043C12.8919 11.2043 12.8381 11.1504 12.7842 11.1504C12.6226 11.1504 12.5148 11.2043 12.4071 11.2582C12.4071 11.2582 12.3533 11.312 11.5992 12.1739C11.5453 12.2816 11.4375 12.3355 11.3298 12.3355H11.2759C11.2221 12.3355 11.1144 12.2816 11.0605 12.2278L10.7911 12.1201C10.1986 11.8507 9.66001 11.5275 9.22904 11.0966C9.12132 10.9889 8.9597 10.8811 8.85198 10.7734C8.47491 10.3964 8.09784 9.96539 7.82858 9.4806L7.77468 9.37288C7.72086 9.31898 7.72086 9.26516 7.66696 9.15743C7.66696 9.04971 7.66696 8.94199 7.72086 8.88809C7.72086 8.88809 7.9363 8.61875 8.09784 8.4572C8.20564 8.3494 8.25947 8.18786 8.36719 8.08014C8.47491 7.91852 8.52881 7.70307 8.47491 7.54145C8.42109 7.27211 7.77468 5.81774 7.61313 5.49458C7.50533 5.33296 7.39769 5.27913 7.23607 5.22523H6.64356C6.53576 5.22523 6.42811 5.27913 6.32031 5.27913L6.26642 5.33296C6.15869 5.38685 6.05097 5.49458 5.94325 5.5484C5.83553 5.6562 5.78163 5.76384 5.67391 5.87164C5.29684 6.35643 5.0814 6.94894 5.0814 7.54145C5.0814 7.97234 5.18912 8.4033 5.35074 8.78037L5.40464 8.94199C5.88943 9.96539 6.53576 10.8811 7.39769 11.6891L7.61313 11.9045C7.77468 12.0662 7.9363 12.1739 8.04402 12.3354C9.17522 13.3051 10.468 14.0053 11.9223 14.3824C12.0839 14.4362 12.2994 14.4362 12.461 14.4901H12.9996C13.269 14.4901 13.5921 14.3824 13.8077 14.2747C13.9692 14.1669 14.0769 14.1669 14.1846 14.0592L14.2924 13.9514C14.4002 13.8437 14.5079 13.7899 14.6156 13.6821C14.7233 13.5744 14.831 13.4667 14.8849 13.3589C14.9927 13.1435 15.0465 12.8741 15.1004 12.6048V12.2278C15.1004 12.2278 15.0465 12.1739 14.9388 12.1201Z" fill="#2D2A40"/>
</g>
<defs>
<clipPath id="clip0_9726_1426">
<rect width="19.7683" height="20" fill="white" transform="translate(0.233521)"/>
</clipPath>
</defs>
</svg>
