<svg width="21" height="20" viewBox="0 0 21 20" fill="none" xmlns="http://www.w3.org/2000/svg">
<path d="M10.5226 4.84375C13.3351 4.84375 15.6565 7.16518 15.6565 9.97768C15.6565 12.8348 13.3351 15.1116 10.5226 15.1116C7.66542 15.1116 5.38864 12.8348 5.38864 9.97768C5.38864 7.16518 7.66542 4.84375 10.5226 4.84375ZM10.5226 13.3259C12.3529 13.3259 13.8261 11.8527 13.8261 9.97768C13.8261 8.14732 12.3529 6.67411 10.5226 6.67411C8.64757 6.67411 7.17435 8.14732 7.17435 9.97768C7.17435 11.8527 8.69221 13.3259 10.5226 13.3259ZM17.0404 4.66518C17.0404 5.33482 16.5047 5.87054 15.8351 5.87054C15.1654 5.87054 14.6297 5.33482 14.6297 4.66518C14.6297 3.99554 15.1654 3.45982 15.8351 3.45982C16.5047 3.45982 17.0404 3.99554 17.0404 4.66518ZM20.4333 5.87054C20.5226 7.52232 20.5226 12.4777 20.4333 14.1295C20.344 15.7366 19.9869 17.1205 18.8261 18.3259C17.6654 19.4866 16.2369 19.8438 14.6297 19.933C12.9779 20.0223 8.02257 20.0223 6.37078 19.933C4.76364 19.8438 3.37971 19.4866 2.17435 18.3259C1.01364 17.1205 0.656494 15.7366 0.567208 14.1295C0.477923 12.4777 0.477923 7.52232 0.567208 5.87054C0.656494 4.26339 1.01364 2.83482 2.17435 1.67411C3.37971 0.513393 4.76364 0.15625 6.37078 0.0669643C8.02257 -0.0223214 12.9779 -0.0223214 14.6297 0.0669643C16.2369 0.15625 17.6654 0.513393 18.8261 1.67411C19.9869 2.83482 20.344 4.26339 20.4333 5.87054ZM18.2904 15.8705C18.8261 14.5759 18.6922 11.4509 18.6922 9.97768C18.6922 8.54911 18.8261 5.42411 18.2904 4.08482C17.9333 3.23661 17.2636 2.52232 16.4154 2.20982C15.0761 1.67411 11.9511 1.80804 10.5226 1.80804C9.04935 1.80804 5.92435 1.67411 4.62971 2.20982C3.73685 2.56696 3.06721 3.23661 2.71007 4.08482C2.17435 5.42411 2.30828 8.54911 2.30828 9.97768C2.30828 11.4509 2.17435 14.5759 2.71007 15.8705C3.06721 16.7634 3.73685 17.433 4.62971 17.7902C5.92435 18.3259 9.04935 18.192 10.5226 18.192C11.9511 18.192 15.0761 18.3259 16.4154 17.7902C17.2636 17.433 17.9779 16.7634 18.2904 15.8705Z" fill="#2D2A40"/>
</svg>
