<svg width="21" height="20" viewBox="0 0 21 20" fill="none" xmlns="http://www.w3.org/2000/svg">
<path fill-rule="evenodd" clip-rule="evenodd" d="M4.92102 0H15.546C18.1349 0 20.2335 2.09867 20.2335 4.6875V15.3125C20.2335 17.9013 18.1349 20 15.546 20H4.92102C2.33219 20 0.233521 17.9013 0.233521 15.3125V4.6875C0.233521 2.09867 2.33219 0 4.92102 0ZM16.9511 17.0066H14.6644C14.5815 17.0066 14.502 16.9737 14.4434 16.9151C14.3848 16.8565 14.3519 16.777 14.3519 16.6941V12.447C14.3519 11.3596 14.3325 9.95992 12.8376 9.95992C11.3211 9.95992 11.0891 11.1445 11.0891 12.3677V16.6937C11.0891 16.7766 11.0561 16.8561 10.9975 16.9147C10.9389 16.9733 10.8594 17.0062 10.7766 17.0062H8.49C8.40712 17.0062 8.32764 16.9733 8.26903 16.9147C8.21043 16.8561 8.1775 16.7766 8.1775 16.6937V7.94219C8.1775 7.85931 8.21043 7.77982 8.26903 7.72122C8.32764 7.66261 8.40712 7.62969 8.49 7.62969H10.6601C10.743 7.62969 10.8224 7.66261 10.8811 7.72122C10.9397 7.77982 10.9726 7.85931 10.9726 7.94219V8.88617C10.9726 8.89163 10.9745 8.89692 10.9778 8.90124C10.9811 8.90556 10.9858 8.90867 10.9911 8.9101C10.9963 8.91153 11.0019 8.91119 11.007 8.90914C11.012 8.90709 11.0163 8.90344 11.0191 8.89875C11.5899 7.93313 12.6478 7.35484 13.7696 7.39656C16.7206 7.39656 17.2648 9.33758 17.2648 11.8628L17.2636 16.6942C17.2636 16.7771 17.2306 16.8566 17.172 16.9151C17.1134 16.9737 17.034 17.0066 16.9511 17.0066ZM4.89227 6.34797C3.96532 6.34797 3.20227 5.58531 3.20227 4.65844C3.20227 3.73156 3.96493 2.96875 4.89196 2.96875C5.81875 2.96875 6.58141 3.73133 6.58157 4.65805C6.58157 5.58477 5.81899 6.34789 4.89227 6.34797ZM6.03555 17.0066H3.74594C3.66306 17.0066 3.58358 16.9737 3.52497 16.9151C3.46637 16.8565 3.43344 16.777 3.43344 16.6941V7.94219C3.43344 7.85931 3.46637 7.77982 3.52497 7.72122C3.58358 7.66261 3.66306 7.62969 3.74594 7.62969H6.03555C6.11843 7.62969 6.19792 7.66261 6.25652 7.72122C6.31513 7.77982 6.34805 7.85931 6.34805 7.94219V16.6941C6.34805 16.777 6.31513 16.8565 6.25652 16.9151C6.19792 16.9737 6.11843 17.0066 6.03555 17.0066Z" fill="#2D2A40"/>
</svg>
